/* XPM */
static char * coin_4_xpm[] = {
"32 32 37 1",
" 	c #05263B",
".	c #117ABE",
"+	c #0A4164",
"@	c #128CD5",
"#	c #1381C2",
"$	c #0B7CBC",
"%	c #1492DC",
"&	c #055888",
"*	c #0975B9",
"=	c #0E78BC",
"-	c #0979BD",
";	c #0673B6",
">	c #0F7ABE",
",	c #0877BB",
"'	c #107ABE",
")	c #0A76BA",
"!	c #0F78BC",
"~	c #0D77BA",
"{	c #118BD4",
"]	c #25131A",
"^	c #0E78BB",
"/	c #0570B2",
"(	c #0F79BC",
"_	c #0673B7",
":	c #0C7CC1",
"<	c #C09344",
"[	c #FFF1CC",
"}	c #FFD569",
"|	c #1179BD",
"1	c #137ABF",
"2	c #0979BE",
"3	c #127ABF",
"4	c #0B7CC1",
"5	c #0471B4",
"6	c #1694DE",
"7	c #0C7FC5",
"8	c #0A7ABF",
"                                ",
"   .+++ +++++ @#$$$$$% &&&&+++* ",
"  =++++ +++++ -#$$$$$% &&&++++* ",
" .+++++ +++++ ;#$$$$$% >++++++* ",
" ++++++ +++++ ,#$$$$$% ++++++') ",
" !!!!!! !!!!~ {%%%%%%{ ~!!!!!!! ",
"              ]]]]              ",
" +++^/~+++++(_]]]]= &&&&&:>  ++ ",
" ++++ !+++++]]<<<<]]+++++++  ++ ",
" ++++ !+++++]]<<<<]]+++++++) ++ ",
" ***+ !+++]]<<[[}}<<]]+++++' ++ ",
"          ]]<<[[}}<<]]       ++ ",
" % |1111]]<<[[[[}}[[<<]]#222 ++ ",
" % ++3+3]]<<[[[[}}[[<<]]$$$$ && ",
" % +++++]]<<[[<<<<}}<<]]$$$$ && ",
" % +++++]]<<[[<<<<}}<<]]$$$$ && ",
"        ]]<<}}<<<<}}<<]]$$$$    ",
" ++++++)]]<<}}<<<<}}<<]]%%%% 44 ",
" ++++++']]<<[[}}}}}}<<]]     55 ",
" +++++++]]<<[[}}}}}}<<]]+++++++ ",
"          ]]<<}}}}<<]] ++++++++ ",
" $$ &&&++ ]]<<}}}}<<]] ~!!!!!!! ",
" $$ +++++ %+]]<<<<]]            ",
" $$ &++++ %+]]<<<<]]+>:&&&&&&&& ",
" $$ &++++ %+++]]]]+++&&++&&&++. ",
" $$ +++++ %+++]]]]+++++++++++=  ",
" $$ +++++ %++++  +++++++++++.   ",
" $$ +++++                       ",
"  $ &++++ !)    )++++&&&& %$$67 ",
" 8$ &&++& !++++++++++++&& %$$$$ ",
" &8 &&&++ !++++++++++++&& %$$$$ ",
"                                "};
