/* XPM */
static char * coin_1_xpm[] = {
"32 32 35 1",
" 	c #05263B",
".	c #117ABE",
"+	c #0A4164",
"@	c #128CD5",
"#	c #1381C2",
"$	c #0B7CBC",
"%	c #1492DC",
"&	c #055888",
"*	c #0975B9",
"=	c #0E78BC",
"-	c #0979BD",
";	c #0673B6",
">	c #0F7ABE",
",	c #0877BB",
"'	c #107ABE",
")	c #0A76BA",
"!	c #0F78BC",
"~	c #0D77BA",
"{	c #118BD4",
"]	c #25131A",
"^	c #0E78BB",
"/	c #0570B2",
"(	c #0C7CC1",
"_	c #C09344",
":	c #FFF1CC",
"<	c #FFD569",
"[	c #1179BD",
"}	c #137ABF",
"|	c #0979BE",
"1	c #127ABF",
"2	c #0B7CC1",
"3	c #0471B4",
"4	c #1694DE",
"5	c #0C7FC5",
"6	c #0A7ABF",
"                                ",
"   .+++ +++++ @#$$$$$% &&&&+++* ",
"  =++++ +++++ -#$$$$$% &&&++++* ",
" .+++++ +++++ ;#$$$$$% >++++++* ",
" ++++++ +++++ ,#$$$$$% ++++++') ",
" !!!!!! !!!!~ {%%%%%%{ ~!!!!!!! ",
"            ]]]]]]]]            ",
" +++^/~+++++]]]]]]]]&&&&&(>  ++ ",
" ++++ !+++]]________]]+++++  ++ ",
" ++++ !+++]]________]]+++++) ++ ",
" ***+ !+]]__::::::<<__]]+++' ++ ",
"        ]]__::::::<<__]]     ++ ",
" % [}}]]__::::____<<::__]]|| ++ ",
" % ++1]]__::::____<<::__]]$$ && ",
" % +++]]__::__::<<__<<__]]$$ && ",
" % +++]]__::__::<<__<<__]]$$ && ",
"      ]]__<<__<<<<__<<__]]$$    ",
" +++++]]__<<__<<<<__<<__]]%% 22 ",
" +++++]]__::<<____<<<<__]]   33 ",
" +++++]]__::<<____<<<<__]]+++++ ",
"        ]]__<<<<<<<<__]]+++++++ ",
" $$ &&&+]]__<<<<<<<<__]]!!!!!!! ",
" $$ +++++ ]]________]]          ",
" $$ &++++ ]]________]](&&&&&&&& ",
" $$ &++++ %+]]]]]]]]+&&++&&&++. ",
" $$ +++++ %+]]]]]]]]+++++++++=  ",
" $$ +++++ %++++  +++++++++++.   ",
" $$ +++++                       ",
"  $ &++++ !)    )++++&&&& %$$45 ",
" 6$ &&++& !++++++++++++&& %$$$$ ",
" &6 &&&++ !++++++++++++&& %$$$$ ",
"                                "};
