/* XPM */
static char * enemy_xpm[] = {
"32 32 163 2",
"  	c #05263B",
". 	c #117ABE",
"+ 	c #0A4164",
"@ 	c #128CD5",
"# 	c #1381C2",
"$ 	c #0B7CBC",
"% 	c #1492DC",
"& 	c #055888",
"* 	c #0975B9",
"= 	c #0E78BC",
"- 	c #0979BD",
"; 	c #14182E",
"> 	c #0F7ABE",
", 	c #6A6C79",
"' 	c #A3A7C2",
") 	c #AAAEC6",
"! 	c #DFE0E8",
"~ 	c #BEC0D3",
"{ 	c #34384F",
"] 	c #107ABE",
"^ 	c #0A76BA",
"/ 	c #0F78BC",
"( 	c #848690",
"_ 	c #0D77BA",
": 	c #535770",
"< 	c #B0B4CB",
"[ 	c #7B7F99",
"} 	c #1C2036",
"| 	c #0E78BB",
"1 	c #0570B2",
"2 	c #0C7CC1",
"3 	c #4E526C",
"4 	c #969AB9",
"5 	c #D2D3DF",
"6 	c #D3D5E0",
"7 	c #D7D9E3",
"8 	c #A3A7C1",
"9 	c #727692",
"0 	c #1B1F36",
"a 	c #393F5D",
"b 	c #686F99",
"c 	c #757CA2",
"d 	c #51577B",
"e 	c #191D34",
"f 	c #4B4F6A",
"g 	c #8F94B4",
"h 	c #44485F",
"i 	c #51556C",
"j 	c #B7BACF",
"k 	c #CBCDDB",
"l 	c #777B91",
"m 	c #7E83A1",
"n 	c #6D728F",
"o 	c #1B1F35",
"p 	c #1179BD",
"q 	c #137ABF",
"r 	c #24283F",
"s 	c #C1C4D5",
"t 	c #8387A1",
"u 	c #0979BE",
"v 	c #127ABF",
"w 	c #5C6078",
"x 	c #17192F",
"y 	c #2E1C32",
"z 	c #6D667D",
"A 	c #ADB1C8",
"B 	c #1F1930",
"C 	c #251B31",
"D 	c #AD2E45",
"E 	c #C68797",
"F 	c #582238",
"G 	c #33374E",
"H 	c #42465E",
"I 	c #72768F",
"J 	c #7D7D94",
"K 	c #CEA5B2",
"L 	c #AF9DB3",
"M 	c #9095B4",
"N 	c #9C8C9F",
"O 	c #737791",
"P 	c #4B4F66",
"Q 	c #3E425A",
"R 	c #A4A8C1",
"S 	c #BDC0D3",
"T 	c #128ED6",
"U 	c #0B7CC1",
"V 	c #D8DAE4",
"W 	c #C5C7D2",
"X 	c #2B2E43",
"Y 	c #7F8191",
"Z 	c #888B9A",
"` 	c #404356",
" .	c #0471B4",
"..	c #585B6C",
"+.	c #9B9DAA",
"@.	c #8C8F9C",
"#.	c #5F6273",
"$.	c #676A7A",
"%.	c #4E5263",
"&.	c #414557",
"*.	c #B2B3BF",
"=.	c #858795",
"-.	c #15192F",
";.	c #272A3F",
">.	c #9194A3",
",.	c #9A9DAE",
"'.	c #6E7181",
").	c #43486A",
"!.	c #464C6C",
"~.	c #646880",
"{.	c #74778B",
"].	c #515674",
"^.	c #65687C",
"/.	c #848797",
"(.	c #B9BCCE",
"_.	c #A5A7B8",
":.	c #3F4255",
"<.	c #15192E",
"[.	c #1F2338",
"}.	c #D5D6E1",
"|.	c #B0B4CA",
"1.	c #6B6F85",
"2.	c #757BA2",
"3.	c #7C82A7",
"4.	c #BABED0",
"5.	c #C5C7D6",
"6.	c #2A2E48",
"7.	c #3F4359",
"8.	c #A8ABC2",
"9.	c #C5C8D7",
"0.	c #36394D",
"a.	c #DDDFE7",
"b.	c #818493",
"c.	c #9CA1BD",
"d.	c #A7ABC3",
"e.	c #B7BACE",
"f.	c #32364E",
"g.	c #4B4E60",
"h.	c #CDCFDA",
"i.	c #DBDCE6",
"j.	c #7B7F97",
"k.	c #9A9EBB",
"l.	c #9295AC",
"m.	c #292D44",
"n.	c #3A3D50",
"o.	c #9496A3",
"p.	c #2C2F44",
"q.	c #1D223A",
"r.	c #868BAE",
"s.	c #7E829C",
"t.	c #9397B7",
"u.	c #676B87",
"v.	c #3C4057",
"w.	c #3B3F56",
"x.	c #9297B7",
"y.	c #868AA6",
"z.	c #2B2F46",
"A.	c #2B2F45",
"B.	c #2C3047",
"C.	c #272B42",
"D.	c #1694DE",
"E.	c #0C7FC5",
"F.	c #0A7ABF",
"                                                                ",
"      . + + +   + + + + +   @ # $ $ $ $ $ %   & & & & + + + *   ",
"    = + + + +   + + + + +   - # $ $ $ $ $ %   & & & + + + + *   ",
"  . + + + + +   + + + ; ; ; ; ; ; ; ; ; ; %   > + + + + + + *   ",
"  + + + + + +   + , ; ' ) ! ! ! ! ! ! ~ ' { ; + + + + + + ] ^   ",
"  / / / / / /   / ( ; ' ) ! ! ! ! ! ! ~ ' { ; _ / / / / / / /   ",
"                ; : ' ! ! ! ! ! ! ! ! ! ! < [ } ;               ",
"  + + + | 1 _ + ; : ' ! ! ! ! ! ! ! ! ! ! < [ } ; 2 >     + +   ",
"  + + + +   / + ; : ' ! ! ! ! ! ! ! ! ! ! < [ } ; + +     + +   ",
"  + + + +   / + ; 3 4 5 6 ! ! ! ! ! ! 7 5 8 9 0 ; + + ^   + +   ",
"  * * * +   / + ; a b ' ) ! ! ! ! ! ! ~ ' c d e ; + + ]   + +   ",
"                ; f g h i j k ! ! ! j l h m n o ;         + +   ",
"  %   p q q q q ; : ' ; r ' s ! ! ! ' : ; t [ } ; u u u   + +   ",
"  %   + + v + v ; : ' ; ; ; w ' ' ' ; ; ; t [ } ; $ $ $   & &   ",
"  %   + + + + + ; : ' ; x y z A A A y B ; t [ } ; $ $ $   & &   ",
"  %   + + + + + ; : ' ; C D E ! ! ! D F ; t [ } ; $ $ $   & &   ",
"                  G H I J K L M M M K N O P Q # $ $ $ $         ",
"  + + + + + + ^ &   ; ' ) ! R b b b ! S ' { ; T % % % %   U U   ",
"  + + + + + + ] ; ; ; V W X Y 5 5 5 X Z V ` ; ;            . .  ",
"  + + + + + + + ......+.@.; ..+.+.+.; #.+.$.....%.+ + + + + +   ",
"            ; &.! ! ! ; ; ; ; ; ; ; ; ; ; *.! ! =.; + + + + +   ",
"  $ $   -.;.=.>.~ ,.'.).!.~.{.=.=.=.~.].).^./.(._.=.:.<./ / /   ",
"  $ $   ; [.! }.|.1.; 2.3.|.4.5.5.5.|.g 2.6.7.8.9.! 0.;         ",
"  $ $   ; [.! a.V b.; c.' V d.c c c V e.c.f.g.h.i.! 0.; & & &   ",
"  $ $   ; } +.+.+.#.; O j.e.k.3.3.3.e.l.O m.n.o.+.+.p.; + + .   ",
"  $ $   + + ; ; ; ; ; ; q.b r.' ' ' b a ; ; ; ; ; ; + + + =     ",
"  $ $   + + + + + ; ; [ s.t.u.v.v.w.x.y.[ z.; + + + + + .       ",
"  $ $   + + + + +   ; ' ' ' w ; ; ; ' ' ' { ;                   ",
"    $   & + + + +   / A.B.B.C.  ^ + z.B.B.& & & &   % $ $ D.E.  ",
"  F.$   & & + + &   / + + + + + + + + + + + + & &   % $ $ $ $   ",
"  & F.  & & & + +   / + + + + + + + + + + + + & &   % $ $ $ $   ",
"                                                                "};
