/* XPM */
static char * player_4_xpm[] = {
"32 32 163 2",
"  	c #05263B",
". 	c #4E2829",
"+ 	c #4B2728",
"@ 	c #52292A",
"# 	c #492627",
"$ 	c #452525",
"% 	c #3A2221",
"& 	c #362020",
"* 	c #371F21",
"= 	c #653031",
"- 	c #783637",
"; 	c #7A3638",
"> 	c #733536",
", 	c #6B3233",
"' 	c #632F30",
") 	c #0A4164",
"! 	c #0975B9",
"~ 	c #BA4C4E",
"{ 	c #B34A4C",
"] 	c #A44A4B",
"^ 	c #A44546",
"/ 	c #9E4748",
"( 	c #8C3D3F",
"_ 	c #3A2B22",
": 	c #3C3A22",
"< 	c #7E383A",
"[ 	c #AA4748",
"} 	c #A54648",
"| 	c #4A2C27",
"1 	c #3F5523",
"2 	c #3E4C23",
"3 	c #3B3422",
"4 	c #AA5454",
"5 	c #AD5B5C",
"6 	c #9B5353",
"7 	c #974948",
"8 	c #A55351",
"9 	c #934243",
"0 	c #4A3127",
"a 	c #3D4623",
"b 	c #436D24",
"c 	c #415A24",
"d 	c #AC494A",
"e 	c #923F40",
"f 	c #B46B6B",
"g 	c #C58C8C",
"h 	c #B37F80",
"i 	c #975F60",
"j 	c #8C4D4D",
"k 	c #9B5F60",
"l 	c #C28586",
"m 	c #455024",
"n 	c #447324",
"o 	c #426324",
"p 	c #833A3C",
"q 	c #D4BABA",
"r 	c #BEA6A7",
"s 	c #8C7575",
"t 	c #785454",
"u 	c #927776",
"v 	c #D4AEAE",
"w 	c #BC8383",
"x 	c #444627",
"y 	c #CA9293",
"z 	c #E0C9C9",
"A 	c #C5BABA",
"B 	c #8A7C7D",
"C 	c #6B595A",
"D 	c #8E8283",
"E 	c #DCC1C2",
"F 	c #9A4F51",
"G 	c #E0C5C6",
"H 	c #BD4E50",
"I 	c #AB8988",
"J 	c #744942",
"K 	c #55462C",
"L 	c #C1B0B0",
"M 	c #C4AEAF",
"N 	c #5A4739",
"O 	c #485127",
"P 	c #C04F51",
"Q 	c #BA7676",
"R 	c #B99595",
"S 	c #926B6C",
"T 	c #7B615F",
"U 	c #B16162",
"V 	c #AD6B6B",
"W 	c #9C5859",
"X 	c #976060",
"Y 	c #6B4543",
"Z 	c #473429",
"` 	c #854242",
" .	c #5F3231",
"..	c #055888",
"+.	c #5C2D2E",
"@.	c #8B4141",
"#.	c #612E2F",
"$.	c #0A76BA",
"%.	c #1492DC",
"&.	c #753939",
"*.	c #C4655E",
"=.	c #B7655C",
"-.	c #0B7CC1",
";.	c #107ABE",
">.	c #0E78BC",
",.	c #B56E61",
"'.	c #D68E78",
").	c #DD927B",
"!.	c #D08874",
"~.	c #BB6C61",
"{.	c #AC5B55",
"].	c #0471B4",
"^.	c #533B35",
"/.	c #7E5B4E",
"(.	c #C19378",
"_.	c #EBB994",
":.	c #F2C39B",
"<.	c #F3BE98",
"[.	c #F0BC96",
"}.	c #E6B38F",
"|.	c #C48972",
"1.	c #AD645B",
"2.	c #816453",
"3.	c #C9A683",
"4.	c #F5CCA1",
"5.	c #FED7A8",
"6.	c #F7D0A3",
"7.	c #F9CFA3",
"8.	c #CB957A",
"9.	c #964847",
"0.	c #33201F",
"a.	c #2E1E1E",
"b.	c #0B7CBC",
"c.	c #FFD8A9",
"d.	c #CB987B",
"e.	c #C89F80",
"f.	c #F4CA9F",
"g.	c #E9C399",
"h.	c #C79177",
"i.	c #785147",
"j.	c #BA8570",
"k.	c #E3AD8C",
"l.	c #D79F81",
"m.	c #B77566",
"n.	c #73403D",
"o.	c #D6967C",
"p.	c #CE8471",
"q.	c #C67769",
"r.	c #A8514F",
"s.	c #DBB18C",
"t.	c #D6A585",
"u.	c #CB796A",
"v.	c #C05E59",
"w.	c #B65251",
"x.	c #BB5453",
"y.	c #C66961",
"z.	c #CD816F",
"A.	c #994847",
"B.	c #B95A56",
"C.	c #0C7FC5",
"D.	c #0A7ABF",
"E.	c #903D3F",
"F.	c #763738",
"      . . . . + . . @ @ . + . @ . + # $ $ $ $ $ $ $ % & *       ",
"    = - - - ; > - ; ; ; - > ; ; > , , , , , , , ' @ $ & * ) !   ",
"% @ ; ~ { { { { { { { ~ ~ ~ { { ] ^ ^ ^ ^ ^ ^ / ( , # _ : : :   ",
"% . < { { [ [ [ [ [ { ~ ~ ~ ~ { ] ^ } } ^ ^ } / ( , | : 1 2 3 % ",
"& # , } [ } ^ ^ ^ ^ ^ ^ [ { { [ 4 5 5 6 7 ] 5 8 9 , 0 a b c : % ",
"& % @ ( / [ d d d [ e ( 9 [ { [ f g h i j k l f 7 , 0 m n o : % ",
"& % $ ; / { ~ ~ ~ { p > p / { [ l q r s t u v w 7 , | x b c 3 % ",
"& % + p ^ { ~ ~ ~ ~ ( < ( ^ { [ y z A B C D E g F , | : 1 2 3 % ",
"& $ = / { ~ ~ ~ ~ ~ ^ / ^ [ { [ y z A B C D G y 6 , | _ : 3 % * ",
"% . ; ~ ~ ~ ~ ~ ~ ~ H ~ ~ ~ { d y z A B C D q I J K m 2 3 * * & ",
"% @ ; ~ H ~ ~ ~ ~ ~ ~ ~ ~ ~ { [ g E L B C B M u N O o o a * )   ",
"% @ ; H P H ~ ~ ~ ~ ~ ~ ~ ~ { [ Q v R S t S I T K c n n 2 ) )   ",
"% . ; ~ ~ ~ ~ ~ ~ ~ ~ ~ ~ ~ { ^ U Q V 6 j W X Y Z c n n 2 ) )   ",
"& . > ^ } ^ ^ ^ ^ ^ { ~ ~ ~ { ^ ] 4 ] 7 7 ] `  .Z 2 o o a ....  ",
"& $ +.- ; ; > > > ; ] { ~ { [ ^ 7 7 7 / ^ ^ < +._ : 2 a 3 ....  ",
"& % $ . @ . + + + @ @.] d [ ^ ^ / / 7 ^ ^ ^ p #.$ _ _ _ % ....  ",
"                    +., p / { { { { { { { d / ( ; +.$ * *       ",
"  ) ) ) ) ) ) $...  %.@ &.8 *.*.*.*.*.*.*.=.4 7 ( , # & & -.-.  ",
"  ) ) ) ) ) ) ;.>.  %.. J ,.'.).).).).).).!.~.{.9 , # & & ].].  ",
"  ) ) ) ) ) ) ) )   %.^./.(._.:.<.<.<.<.[.}.|.1.9 , # & ) ) )   ",
"                    %.^.2.3.4.5.6.6.6.6.7.:.8.,.9., # 0.a.) )   ",
"  b.b.  ......) )   %.^.2.3.6.c.5.c.c.5.6.4.d.,.7 , . % 0.& & & ",
"  b.b.  ) ) ) ) )   %.^.2.3.6.c.5.5.c.6.6.4.d.,.7 ; #.@ . $ % & ",
"  b.b.  ..) ) ) )   %.^.2.e.f.6.6.6.6.6.f.g.h.=.] ^ ^ ^ ^ , $ & ",
"  b.b.  ..) ) ) )   %.Z i.j.k.:.4.4.:._.k.l.m.{.] [ [ [ / #.$ & ",
"  b.b.  ) ) ) ) )   %.. n.1.!.k.g.g.k.o.p.q.5 r.] ] } 9 < . % & ",
"  b.b.  ) ) ) ) )   . +.; ] *.p.s.t.o.u.v.w.d ] ^ / @.- +.% & & ",
"  b.b.  ) ) ) ) )   ' ; e d x.y.p.z.q.*.x.{ } ^ A.p > +.# & & & ",
"    b.  ..) ) ) )   ; / d { ~ w.B.B.x.{ d { { d 7 < +.# % & C.  ",
"  D.b.  ....) ) ..  p [ ~ { d / e e e E.e ^ { d / p , @ % b.b.  ",
"  ..D.  ......) )   > 9 / 9 < ' % % % % + > / / ( ( p , @ b.b.  ",
"                    +., F., ' @         # +.> > , , , +.+       "};
