/* XPM */
static char * player_2_xpm[] = {
"32 32 151 2",
"  	c #05263B",
". 	c #51292A",
"+ 	c #4E2829",
"@ 	c #4C2728",
"# 	c #492627",
"$ 	c #442525",
"% 	c #3A2221",
"& 	c #362020",
"* 	c #361F21",
"= 	c #6B3333",
"- 	c #7A3638",
"; 	c #783637",
"> 	c #763A3A",
", 	c #753738",
"' 	c #643031",
") 	c #0A4164",
"! 	c #0975B9",
"~ 	c #BA4C4E",
"{ 	c #B44A4C",
"] 	c #A94748",
"^ 	c #A44546",
"/ 	c #9B4445",
"( 	c #8C3D3E",
"_ 	c #3B2B22",
": 	c #3C3A22",
"< 	c #AC494A",
"[ 	c #A54648",
"} 	c #492C26",
"| 	c #3F5523",
"1 	c #3E4B23",
"2 	c #AA5252",
"3 	c #AC5C5D",
"4 	c #9B5353",
"5 	c #954A49",
"6 	c #A55251",
"7 	c #934343",
"8 	c #493126",
"9 	c #436D24",
"0 	c #415B24",
"a 	c #903E3F",
"b 	c #923F40",
"c 	c #AE6A6B",
"d 	c #BD8484",
"e 	c #B77D7D",
"f 	c #966060",
"g 	c #8B4E4D",
"h 	c #9A6262",
"i 	c #447324",
"j 	c #426324",
"k 	c #843B3C",
"l 	c #C28687",
"m 	c #D5B4B5",
"n 	c #BFAEAF",
"o 	c #8A7C7C",
"p 	c #795453",
"q 	c #927675",
"r 	c #D3AEAE",
"s 	c #3D4523",
"t 	c #C99192",
"u 	c #E0C9C9",
"v 	c #C7B7B8",
"w 	c #6A5959",
"x 	c #8E8282",
"y 	c #DDC2C3",
"z 	c #C78E8F",
"A 	c #9B4F51",
"B 	c #C4BABA",
"C 	c #A78888",
"D 	c #734B43",
"E 	c #54462C",
"F 	c #485227",
"G 	c #BD4E50",
"H 	c #C6ADAE",
"I 	c #8C7575",
"J 	c #594839",
"K 	c #381E21",
"L 	c #C04F51",
"M 	c #BA9495",
"N 	c #936B6B",
"O 	c #7D6258",
"P 	c #455024",
"Q 	c #B16262",
"R 	c #B77071",
"S 	c #6C4843",
"T 	c #443726",
"U 	c #834341",
"V 	c #5C3432",
"W 	c #055888",
"X 	c #5B2D2D",
"Y 	c #9F4748",
"Z 	c #8C4141",
"` 	c #612E2F",
" .	c #0A76BA",
"..	c #1492DC",
"+.	c #C5645E",
"@.	c #C8665F",
"#.	c #B55955",
"$.	c #A9514F",
"%.	c #0B7CC1",
"&.	c #107ABE",
"*.	c #0E78BC",
"=.	c #B37063",
"-.	c #D68D79",
";.	c #DD927B",
">.	c #D18974",
",.	c #B46E61",
"'.	c #AB5857",
").	c #964947",
"!.	c #341F1F",
"~.	c #0471B4",
"{.	c #513531",
"].	c #7B564B",
"^.	c #C39479",
"/.	c #ECBB96",
"(.	c #F3C199",
"_.	c #F3BF98",
":.	c #E4B490",
"<.	c #C28C74",
"[.	c #B9615A",
"}.	c #543C35",
"|.	c #816553",
"1.	c #C7A382",
"2.	c #F4CEA1",
"3.	c #FDD7A8",
"4.	c #F1CA9F",
"5.	c #C9997C",
"6.	c #0B7CBC",
"7.	c #C8A583",
"8.	c #F5D0A3",
"9.	c #FFD8A9",
"0.	c #0F78BC",
"a.	c #EAC39A",
"b.	c #DEB992",
"c.	c #C69B7D",
"d.	c #997561",
"e.	c #825E52",
"f.	c #94705F",
"g.	c #B78670",
"h.	c #A57F68",
"i.	c #85564C",
"j.	c #945A52",
"k.	c #B87968",
"l.	c #70403D",
"m.	c #AB695D",
"n.	c #E2AB8B",
"o.	c #B99578",
"p.	c #C26A61",
"q.	c #BB5453",
"r.	c #994847",
"s.	c #0A7ABF",
"t.	c #642F30",
"      . . . + @ + + @ + + + . . + @ # $ $ $ $ $ $ $ % & *       ",
"    = - - - - ; - ; ; - - ; - > , = = = = = = = ' . $ & * ) !   ",
"% . - ~ ~ { { { { { { ~ ~ ~ { { ] ^ ^ ^ / / ^ / ( = # _ : : :   ",
"% + > { { < ] ] ] < ~ ~ ~ ~ ~ { [ ^ [ ^ ^ ^ [ ^ ( = } : | 1 : % ",
"& # = ^ ] ] ^ ] ] ] ] ^ ] { { < 2 3 3 4 5 ^ 3 6 7 = 8 1 9 0 : % ",
"& % . ( / ] { { { < a ( b ^ { ] c d e f g h d c 5 = 8 1 i j : % ",
"& % $ - / { ~ ~ ~ { k , k / { [ l m n o p q r d 5 = } s 9 0 : % ",
"& % @ k ^ { ~ ~ ~ ~ ( - k ^ { [ t u v o w x y z A = } : | 1 _ % ",
"& $ ' / { ~ ~ ~ ~ ~ ^ 7 / < { ] t u v o w x y t 4 = } _ : : % * ",
"% . - ~ ~ ~ ~ ~ ~ ~ ~ ~ ~ ~ { < t u v o w x B C D E F 1 : * * & ",
"% . - ~ G ~ ~ ~ ~ ~ ~ ~ ~ ~ { ] z y H o w o n I J F j j s K )   ",
"% . - G L G ~ ~ ~ ~ ~ ~ ~ ~ { ] e H M N p N C O E 0 i i P ) )   ",
"% + ; ~ G ~ ~ ~ ~ ~ ~ ~ ~ ~ { ] Q R c 4 5 4 f S T 0 i i 1 ) )   ",
"& + , ^ [ ^ ^ ^ ^ ^ { ~ ~ ~ { [ ^ ^ ^ 5 5 [ U V T 1 j j s W W   ",
"& $ X ; - ; , , , - ^ { ~ { ] ^ 5 5 5 Y ^ ^ > X _ : 1 s : W W   ",
"* % $ + . + @ @ @ . Z ^ < ] ^ ^ / / 5 ^ ^ ^ k ` $ _ _ _ % W W   ",
"                    X = k / { { { { { ~ { ] / ( - X $ * *       ",
"  ) ) ) ) ) )  .W   ..X > 6 +.+.+.+.@.@.+.#.$.5 Z = # & & %.%.  ",
"  ) ) ) ) ) ) &.*.  ... D =.-.;.;.;.;.;.-.>.,.'.)., # & !.~.~.  ",
"  ) ) ) ) ) ) ) )   ..{.].^./.(._._._.(./.:.<.[.).= # & !.) )   ",
"                    ..}.|.1.2.3.3.3.3.3.3.4.5.,.5 = # % ) ) )   ",
"  6.6.  W W W ) )   ..}.|.7.8.9.9.9.3.3.3.4.5.=.5 = # % 0.0.0.  ",
"  6.6.  ) ) ) ) )   ..}.|.7.2.9.9.3.2.a.b.b.5.=.5 , X .         ",
"  6.6.  W ) ) ) )   ..}.O c.4.3.3.4.7.d.e.f.<.,.^ ^ / U ' % & & ",
"  6.6.  W ) ) ) )   ..{.].g.:.(.b.7.h.i.U j.k.[.^ ] [ 7 > + % & ",
"  6.6.  ) ) ) ) )   ..+ l.m.>.n.o.d.i.U 7 $.[.2 ^ ^ ^ / 7 ` $ * ",
"  6.6.  ) ) ) ) )   ..@ = 5 p.>.d.S ' k ^ G ~ < ^ / 7 7 7 = @ * ",
"  6.6.  ) ) ) ) )     $ ' / q.p.i.V X k < G ~ < r.k ; , , X $ & ",
"    6.  W ) ) ) )   0.# ' b < 2 > . X k ] G { ] Z , X + # $ % & ",
"  s.6.  W W ) ) W   0.) t.- ( k X @ X k ] ~ ] 7 - ` + % & % % & ",
"  W s.  W W W ) )   0.) ) ) $ % % % . ; 7 5 ; X $ % ..6.6.6.6.  ",
"                                !.% # ` , ; X $ & &             "};
