/* XPM */
static char * player_3_xpm[] = {
"32 32 139 2",
"  	c #3B2222",
". 	c #54292A",
"+ 	c #9E4648",
"@ 	c #AA4648",
"# 	c #A94547",
"$ 	c #943F41",
"% 	c #8B3C3E",
"& 	c #432425",
"* 	c #3B2D22",
"= 	c #05263B",
"- 	c #B34A4C",
"; 	c #BB4D4F",
"> 	c #A34446",
", 	c #5B2B2D",
"' 	c #412C24",
") 	c #3C3B22",
"! 	c #3E4A23",
"~ 	c #3D4523",
"{ 	c #AD494B",
"] 	c #A54B4C",
"^ 	c #A54648",
"/ 	c #423B24",
"( 	c #3F5223",
"_ 	c #436A24",
": 	c #4D2728",
"< 	c #AD5A5B",
"[ 	c #B26D6E",
"} 	c #A56869",
"| 	c #985354",
"1 	c #A25F60",
"2 	c #B16162",
"3 	c #A14F50",
"4 	c #426224",
"5 	c #457A25",
"6 	c #612C2F",
"7 	c #803739",
"8 	c #903D3F",
"9 	c #7D3739",
"0 	c #C88F90",
"a 	c #DDC0C1",
"b 	c #B7A7A7",
"c 	c #817372",
"d 	c #A79C9C",
"e 	c #D4BFC0",
"f 	c #D3A6A7",
"g 	c #3B3422",
"h 	c #BE4E50",
"i 	c #CB9696",
"j 	c #E0CBCC",
"k 	c #B7ADAD",
"l 	c #D9C9CA",
"m 	c #DAB0B1",
"n 	c #D6AFB0",
"o 	c #AA6A6B",
"p 	c #D6C8C8",
"q 	c #CAAAAB",
"r 	c #956664",
"s 	c #474927",
"t 	c #404424",
"u 	c #C04F51",
"v 	c #BD7C7C",
"w 	c #B28C8D",
"x 	c #8C6565",
"y 	c #A68282",
"z 	c #B79C9D",
"A 	c #9C7F80",
"B 	c #655048",
"C 	c #447324",
"D 	c #405623",
"E 	c #0A4164",
"F 	c #B77475",
"G 	c #A96264",
"H 	c #835858",
"I 	c #574137",
"J 	c #944042",
"K 	c #964749",
"L 	c #753B3C",
"M 	c #6C3233",
"N 	c #793537",
"O 	c #723335",
"P 	c #4E2928",
"Q 	c #055888",
"R 	c #372020",
"S 	c #1492DC",
"T 	c #B85050",
"U 	c #4A2627",
"V 	c #391F21",
"W 	c #9E514E",
"X 	c #C56C62",
"Y 	c #CD7267",
"Z 	c #BB6C60",
"` 	c #AC5C55",
" .	c #A5514E",
"..	c #0A76BA",
"+.	c #0B7CC1",
"@.	c #107ABE",
"#.	c #0E78BC",
"$.	c #724A42",
"%.	c #B87968",
"&.	c #DB9B80",
"*.	c #E5A487",
"=.	c #D3957B",
"-.	c #C1846F",
";.	c #B56B5F",
">.	c #0471B4",
",.	c #765A4B",
"'.	c #BC9B7B",
").	c #F4CEA1",
"!.	c #FEDAA9",
"~.	c #F5D0A2",
"{.	c #E9C59A",
"].	c #DAAC8A",
"^.	c #A65953",
"/.	c #331E1E",
"(.	c #0B7CBC",
"_.	c #EBC89D",
":.	c #652E30",
"<.	c #BC9578",
"[.	c #F4C99E",
"}.	c #FAD6A6",
"|.	c #D4A584",
"1.	c #D48A75",
"2.	c #E1AC8A",
"3.	c #E3B08D",
"4.	c #C67667",
"5.	c #BB5B56",
"6.	c #D8A384",
"7.	c #CA7A6A",
"8.	c #AC504E",
"9.	c #682F31",
"0.	c #C0695F",
"a.	c #CA8772",
"b.	c #CB826F",
"c.	c #BC5F59",
"d.	c #B55854",
"e.	c #0F78BC",
"f.	c #1694DE",
"g.	c #0C7FC5",
"h.	c #0A7ABF",
"  . + @ @ @ @ @ @ @ @ @ @ # @ @ + $ $ $ $ $ $ $ % . &     * = = ",
"  . @ - - - - - - - ; ; ; ; ; - > > > > > > > > + , ' ) ) ! ~ = ",
"  . @ - - - - - - - ; ; ; ; ; - > > > > > > > > + , ' ) ) ! ~ = ",
"  . > { { { @ @ @ @ - ; ; ; - { ] ] ] ^ ^ ] ] ] + , / ( ( _ )   ",
"  : % + + > @ @ @ > + > > @ - @ < [ } | | 1 [ 2 3 , / 4 4 5 )   ",
"    6 7 7 > ; ; ; { 8 9 9 $ ^ > 0 a b c c d e f [ . / ( ( _ g   ",
"  & 9 + + - ; h h - + $ $ > { # i j k c c d l m [ , ' ) ) ! *   ",
"  . + - - ; ; h ; ; - { { - - @ i l b c c d l n o . ' * * *     ",
"  . @ h h h ; ; ; ; h h h ; - # i j b c c d p q r s t g g       ",
"  . @ h h h ; ; ; ; h h h ; - # i j b c c d p q r s t g g       ",
"  . { h h u h h h h ; ; ; ; ; @ v f w x x y z A B _ C D D g E = ",
"  . @ ; ; ; - ; - ; ; ; ; ; ; @ 2 F o | | G o H I C C D D g E = ",
"  : J @ @ > + + + > - ; ; ; - > ] ] ] + + ] K L . 4 _ ( ( * E = ",
"  & M N N O M M O 7 $ - - - @ > + + > > > > $ M P ! ! ) )   Q = ",
"                R & , $ $ > > # # # # # # > $ 7 M &         Q = ",
"= S = E E E E E E E : 9 9 + - T - T T T T { ^ + % U   V V   Q = ",
"= = = = = = = = = = = M M W X Y Y Y Y Y Y Z `  .+ . &       = = ",
"= E E E E E E ..Q = S M M W X Y Y Y Y Y Y Z `  .+ . &       +.= ",
"= E E E E E E @.#.= S $.$.%.&.*.*.*.*.*.*.=.-.;. .,       >.>.= ",
"= E E E E E E E E = S ,.,.'.).!.~.~.~.~.~.{.].-.^..   /././.    ",
"= = = = = = = = = = S ,.,.'.).!.~.~.~.~.~.{.].-.^.6 U & & &     ",
"= (.(.= Q Q Q E E = /.,.,.'.).!.~.~.~.~.~._.].-.` N M M M :.&   ",
"= (.(.= E E E E E R R ,.,.<.[.}.~.~.~.).).{.|.-.` $ $ $ $ 7 U   ",
"= (.(.= Q E E E   & . W W Z 1.2.{.{.3.&.&.4.Z ` ] > + % % O &   ",
"= (.(.= Q E E E   & . W W Z 1.2.{.{.3.&.&.4.Z ` ] > + % % O &   ",
"= (.(.= E E E E   & 6 { { 5.X 1.].6.=.7.7.T 8.] > $ 7 9.9.P     ",
"= (.(.= E E E E   & M @ @ - T 0.a.b.4.c.c.- @ # > 9 :.: :       ",
"= (.(.= E E E E E & :.+ + + > { c.5.d.- - - - { + :.: & &   = = ",
"= = (.= Q E E E E = e.. . . . , , , , , , $ { - > ,   R R f.g.= ",
"= h.(.= Q Q E E Q = e.& & & & & & & & & & N $ > + , & R R (.(.= ",
"= Q h.= Q Q Q E E = e.E E E E E E E E E E , O 7 % . & (.(.(.(.= ",
"= = = = = = = = = = = = = = = = = = = = = , O 7 % . & = = = = = "};
