/* XPM */
static char * player_1_xpm[] = {
"32 32 149 2",
"  	c #05263B",
". 	c #362020",
"+ 	c #3A2221",
"@ 	c #4E2829",
"# 	c #4C2728",
"$ 	c #52292A",
"% 	c #492627",
"& 	c #442525",
"* 	c #371F21",
"= 	c #0A4164",
"- 	c #0975B9",
"; 	c #974847",
"> 	c #A44446",
", 	c #9C4244",
"' 	c #8C3C3E",
") 	c #823A3C",
"! 	c #A64648",
"~ 	c #BA4C4E",
"{ 	c #B44A4C",
"] 	c #BD4E50",
"^ 	c #AD484A",
"/ 	c #3B2B22",
"( 	c #3C3522",
"_ 	c #3C3A22",
": 	c #8F3E40",
"< 	c #4A2D27",
"[ 	c #3F5423",
"} 	c #426324",
"| 	c #923F40",
"1 	c #A55152",
"2 	c #AD5C5C",
"3 	c #9B4B4B",
"4 	c #A54B4B",
"5 	c #954243",
"6 	c #3D4522",
"7 	c #436C24",
"8 	c #467C25",
"9 	c #5C2C2E",
"0 	c #7A3638",
"a 	c #C18787",
"b 	c #D4BABA",
"c 	c #BEA7A7",
"d 	c #8E7372",
"e 	c #927776",
"f 	c #C4AEAE",
"g 	c #D4ADAE",
"h 	c #BC8283",
"i 	c #447324",
"j 	c #642F30",
"k 	c #C99394",
"l 	c #E0C9CA",
"m 	c #C5BBBB",
"n 	c #8A7D7C",
"o 	c #8E8382",
"p 	c #CCC1C1",
"q 	c #DDC2C3",
"r 	c #C68D8E",
"s 	c #9B5455",
"t 	c #415B24",
"u 	c #C78F91",
"v 	c #BF8C8D",
"w 	c #8D4D4C",
"x 	c #443226",
"y 	c #C1B1B2",
"z 	c #5B4839",
"A 	c #C14F51",
"B 	c #B77475",
"C 	c #B79394",
"D 	c #926C6B",
"E 	c #B99797",
"F 	c #AB8988",
"G 	c #7C625F",
"H 	c #4B4230",
"I 	c #B06162",
"J 	c #AB6A6A",
"K 	c #996261",
"L 	c #6A4743",
"M 	c #453B29",
"N 	c #9F4748",
"O 	c #853E40",
"P 	c #5F3231",
"Q 	c #055888",
"R 	c #612E2F",
"S 	c #6B3233",
"T 	c #743436",
"U 	c #0A76BA",
"V 	c #1492DC",
"W 	c #713C3B",
"X 	c #C5655E",
"Y 	c #C8665F",
"Z 	c #B7655C",
"` 	c #B15955",
" .	c #A8514F",
"..	c #0B7CC1",
"+.	c #107ABE",
"@.	c #0E78BC",
"#.	c #7B574A",
"$.	c #C39478",
"%.	c #EABB95",
"&.	c #F3C19A",
"*.	c #F4BE98",
"=.	c #E3B48F",
"-.	c #D3AA87",
";.	c #C98973",
">.	c #AC655A",
",.	c #0471B4",
"'.	c #816453",
").	c #C6A281",
"!.	c #F3CDA0",
"~.	c #FCD5A6",
"{.	c #F0CA9E",
"].	c #DEB992",
"^.	c #CA967B",
"/.	c #B56E61",
"(.	c #35201F",
"_.	c #2E1D1D",
":.	c #CAA583",
"<.	c #F6D0A3",
"[.	c #FFD8A9",
"}.	c #E1BB93",
"|.	c #CB997C",
"1.	c #0B7CBC",
"2.	c #FFD7A8",
"3.	c #7F6050",
"4.	c #E7C298",
"5.	c #D9B38D",
"6.	c #B98670",
"7.	c #BD987A",
"8.	c #BF9076",
"9.	c #B57667",
"0.	c #D48A76",
"a.	c #E2AA8A",
"b.	c #A7816A",
"c.	c #8F695A",
"d.	c #A36559",
"e.	c #AA5D56",
"f.	c #663132",
"g.	c #C29D7E",
"h.	c #855C50",
"i.	c #7D3B3C",
"j.	c #BC5553",
"k.	c #904F4A",
"l.	c #71433D",
"m.	c #6D3C3A",
"n.	c #0F78BC",
"o.	c #1694DE",
"p.	c #0C7FC5",
"q.	c #0A7ABF",
"r.	c #783637",
"      . + + + . + + . . + + + + + . . . . . . . . . .           ",
"      @ @ @ @ # @ @ # # @ # $ $ @ # % % & & & % & + . * = = -   ",
"  + @ ; > > > > > > > > > > > > , ' ' ' ' ' ' ' ) % + . + = -   ",
"  + $ ! ~ ~ { { { { { { ] ~ { { ^ > > > , > > , ' % / ( _ _ -   ",
"  + @ > { { ^ ^ ^ ^ { { ~ ~ ~ { ^ > ! > > > ! , : < _ [ } ( +   ",
"  . % | > ^ ^ ^ ^ ^ ^ ^ ^ { { ^ 1 2 2 3 4 2 2 1 5 < 6 7 8 _ +   ",
"  . + 9 0 , { ~ ~ { > ) ) , { ^ a b c d e f g h 3 < 6 7 i ( +   ",
"  . + j ) > { ~ ~ ~ ^ ' ' > { ^ k l m n o p q r s < _ [ t ( +   ",
"  + & ) , { ~ ~ ~ ~ { > , ^ { ^ k l m n o p q u s < / ( _ + *   ",
"  + @ > { ~ ~ ~ ~ ~ ~ { ~ ~ { ^ k l m n o p q v w x / + + + .   ",
"  + $ ^ ] ] ~ ~ ~ ~ ~ ~ ~ ~ { ^ r q y n n m f e z } } 6 + = =   ",
"  + $ ^ ] A ] ~ ~ ~ ~ ~ ~ ~ { ^ B f C D D E F G H i i 6 / = =   ",
"  + $ > ~ ] ~ ~ ~ ~ ~ ~ ~ ~ ~ ^ I B J s s J K L M i i 6 / = =   ",
"  . @ | > ! > > > > ^ { ~ ~ { ! 4 4 4 N ! 4 O P x } } 6 / Q Q   ",
"  . + @ @ $ @ # % $ j ' ^ ^ > > , , > > > , ) R & / / + . Q Q   ",
"  . . . . + + . . + @ S , > > > > > > > > , ' T 9 + . . . Q Q   ",
"                      9 ) , { { { { { { ^ > , ' 0 & . * .       ",
"  = = = = = = U Q   V = W 1 X X X X Y X Z `  .3 ' % . * . ....  ",
"  = = = = = = +.@.  V = #.$.%.&.*.*.*.*.=.-.;.>.; % .     ,.,.  ",
"  = = = = = = = =   V = '.).!.~.~.~.~.~.{.].^./.; % (._.= = =   ",
"                    V = '.:.<.[.[.[.[.[.!.}.|./.; # + (.. . .   ",
"  1.1.  Q Q Q = =   V = '.:.<.[.2.2.2.[.!.}.|./.3 9 $ @ % + .   ",
"  1.1.  = = = = =   V = 3.).{.~.~.~.~.<.4.5.$.Z 4 > ! > ' & .   ",
"  1.1.  Q = = = =   V = #.6.=.&.<.!.4.-.7.8.9.2 4 ^ ^ , ) & .   ",
"  1.1.  Q = = = =   V = W >.0.a.4.}.:.b.c.d.e. .4 > , ) f.+ .   ",
"  1.1.  = = = = =   V = f.3 X 0.:.g.b.h.i.; 4 4 > ' 0 9 & . .   ",
"  1.1.  = = = = =   V = j | { j.k.l.m.) ^ { { ! | $ & + .       ",
"  1.1.  = = = = =       j 0 ; ; S $ 9 ' ~ ~ ^ ; 0 % (.. .       ",
"    1.  Q = = = =   n.U   9 j j % + 9 ' { ^ | T 9   V 1.1.o.p.  ",
"  q.1.  Q Q = = Q   n.= = = & & + + $ r., | 0 9 %   V 1.1.1.1.  ",
"  Q q.  Q Q Q = =   n.= = = = . . . + & @ % & & Q   V 1.1.1.1.  ",
"                              . . . . . + . + +                 "};
